# xmcd CD database file
#
# Track frame offsets:
#	150
#	16080
#	30841
#	44906
#	57555
#	72073
#	84684
#	99117
#	113322
#	126817
#	143357
#	158318
#	174206
#	190335
#	204148
#	217368
#	231995
#	245032
#	256094
#	269792
#	285877
#	300070
#	315943
#
# Disc length: 4389 seconds
#
# Revision: 0
# Processed by: cddbd v1.5.2PL0 Copyright (c) Steve Scherf et al.
# Submitted via: CDex 1.70beta2
#
DISCID=24112317
DTITLE=Charlie Parker with Strings - The Master Takes
DYEAR=1995
DGENRE=Jazz
TTITLE0=Just Friends
TTITLE1=Everything happens to me
TTITLE2=April in Paris
TTITLE3=Summertime
TTITLE4=I didn't know what Time it was
TTITLE5=If I should lose you
TTITLE6=Dancing in the Dark
TTITLE7=Out of Nowhere
TTITLE8=Laura
TTITLE9=East of the Sun (and West of the Moon)
TTITLE10=They can't take that away from me
TTITLE11=Easy to love
TTITLE12=I'm in the mood for Love
TTITLE13=I'll remember April
TTITLE14=What is this Thing called Love
TTITLE15=April in Paris
TTITLE16=Repetition
TTITLE17=Easy to love
TTITLE18=Rocker
TTITLE19=Temptation
TTITLE20=Lover
TTITLE21=Autumn in New York
TTITLE22=Stella by Starlight
EXTD=YEAR: 1995
EXTT0=
EXTT1=
EXTT2=
EXTT3=
EXTT4=
EXTT5=
EXTT6=
EXTT7=
EXTT8=
EXTT9=
EXTT10=
EXTT11=
EXTT12=
EXTT13=
EXTT14=
EXTT15=
EXTT16=
EXTT17=
EXTT18=
EXTT19=
EXTT20=
EXTT21=
EXTT22=
PLAYORDER=
